<?xml version="1.0" encoding="UTF-8" standalone="no"?>
<!-- Created with Inkscape (http://www.inkscape.org/) -->

<svg
   width="141.36153mm"
   height="195.07448mm"
   viewBox="0 0 141.36153 195.07448"
   version="1.1"
   id="svg5"
   xml:space="preserve"
   xmlns:inkscape="http://www.inkscape.org/namespaces/inkscape"
   xmlns:sodipodi="http://sodipodi.sourceforge.net/DTD/sodipodi-0.dtd"
   xmlns:xlink="http://www.w3.org/1999/xlink"
   xmlns="http://www.w3.org/2000/svg"
   xmlns:svg="http://www.w3.org/2000/svg"><sodipodi:namedview
     id="namedview7"
     pagecolor="#505050"
     bordercolor="#eeeeee"
     borderopacity="1"
     inkscape:showpageshadow="0"
     inkscape:pageopacity="0"
     inkscape:pagecheckerboard="0"
     inkscape:deskcolor="#505050"
     inkscape:document-units="mm"
     showgrid="false" /><defs
     id="defs2"><linearGradient
       id="linearGradient5251"><stop
         style="stop-color:#18a75c;stop-opacity:1;"
         offset="0"
         id="stop5245" /><stop
         style="stop-color:#ead681;stop-opacity:1;"
         offset="0.76642984"
         id="stop5247" /><stop
         style="stop-color:#ffffff;stop-opacity:1;"
         offset="1"
         id="stop5249" /></linearGradient><linearGradient
       id="linearGradient1566"
       inkscape:swatch="solid"><stop
         style="stop-color:#008000;stop-opacity:1;"
         offset="0"
         id="stop1564" /></linearGradient><linearGradient
       id="linearGradient1555"><stop
         style="stop-color:#787878;stop-opacity:1;"
         offset="0.00373136"
         id="stop1559" /><stop
         style="stop-color:#000000;stop-opacity:0;"
         offset="1"
         id="stop1561" /></linearGradient><linearGradient
       inkscape:collect="always"
       xlink:href="#linearGradient5251"
       id="linearGradient12374-0"
       gradientUnits="userSpaceOnUse"
       gradientTransform="matrix(0.00246278,-6.9666891,2.2759152,0.00753871,30.791713,-556.57567)"
       x1="-116.43803"
       y1="47.684116"
       x2="-84.705368"
       y2="47.684116"
       spreadMethod="reflect" /><linearGradient
       inkscape:collect="always"
       xlink:href="#linearGradient1555"
       id="linearGradient12376-5"
       gradientUnits="userSpaceOnUse"
       gradientTransform="matrix(0.00246278,-6.9666891,2.2759152,0.00753871,-20.572028,902.54172)"
       x1="93.160446"
       y1="70.02581"
       x2="124.62853"
       y2="70.02581" /></defs><g
     inkscape:label="Layer 1"
     inkscape:groupmode="layer"
     id="layer1"
     transform="translate(-45.759938,-46.729777)"><g
       id="g6205"
       clip-path="none"
       transform="translate(-29.868653,9.7516007)"
       inkscape:groupmode="layer"><path
         id="rect798-0"
         clip-path="none"
         style="mix-blend-mode:normal;fill:url(#linearGradient12374-0);fill-opacity:1;fill-rule:nonzero;stroke:url(#linearGradient12376-5);stroke-width:1.05354"
         d="m 125.08816,37.504946 c 0.002,0.0062 0.003,0.01239 0.005,0.0186 h 5.66219 c -1.88894,-0.0063 -3.7779,-0.01235 -5.66684,-0.0186 z m 15.62386,11.496973 c -0.45742,-0.01871 -0.83451,0.41551 -1.13172,1.303796 -1.19843,3.581779 -4.13914,10.781004 -6.21926,15.222844 -1.25586,2.681976 -2.57852,5.787881 -2.93832,6.899837 -0.35972,1.111957 -1.89822,3.847996 -3.41839,6.079732 -3.23966,4.756031 -4.7127,9.495196 -4.09743,13.185759 0.39744,2.38217 0.23712,2.638598 -1.65674,2.638598 -2.34407,0 -5.80964,3.592845 -5.40691,5.605343 0.13788,0.687282 1.6905,2.028632 3.45302,2.980182 1.76249,0.9516 4.13776,3.0488 5.2772,4.66276 1.13939,1.61391 3.01323,3.84297 4.16512,4.95164 1.15191,1.10869 2.09651,2.73266 2.09651,3.61011 0,1.36526 -0.79477,1.67613 -5.50457,2.16163 -6.55179,0.67532 -16.11297,4.79862 -18.82469,8.11682 -4.28586,5.24413 -5.64121,17.1656 -3.08354,27.11514 1.70869,6.6466 3.05624,10.8901 3.74809,11.80599 0.337,0.44629 1.47859,3.15381 2.53628,6.01462 2.34821,6.35154 2.06029,10.83844 -1.09192,17.06511 -1.22861,2.42691 -2.23397,4.70924 -2.23397,5.07204 0,3.4413 7.49814,-5.96115 10.01437,-12.5584 1.94217,-5.09196 2.19402,-11.99657 1.01493,-27.76472 -0.74141,-9.91478 -0.13467,-11.65796 2.34094,-6.73602 0.99489,1.9781 1.80919,3.99505 1.80919,4.48242 0,0.48722 1.71031,4.40791 3.80029,8.71316 6.26811,12.91174 6.60704,17.75217 1.57923,22.44256 -1.56861,1.46318 -2.85099,3.00675 -2.85099,3.43183 0,0.42536 3.37645,3.97372 7.50342,7.88582 l 7.50342,7.11378 -4.18269,4.51859 c -5.02669,5.42819 -5.09889,7.83642 -0.36019,12.13776 3.01668,2.73833 3.79492,5.40819 2.25671,7.74629 -0.40952,0.62296 -1.3255,0.91796 -2.03398,0.65629 -2.14715,-0.7929 -3.14177,1.23354 -1.53944,3.13625 3.58227,4.25376 7.83665,3.67394 11.12387,-1.51516 h -0.002 c 2.69515,-4.25428 2.183,-6.85149 -2.14096,-10.83913 -2.08672,-1.92457 -3.79108,-3.96297 -3.78788,-4.5284 0.002,-0.56543 1.37869,-1.9287 3.05821,-3.02979 1.79697,-1.1781 3.68586,-3.41846 4.58732,-5.44256 1.36878,-3.07346 1.4019,-3.68821 0.31471,-5.78621 -0.66942,-1.29156 -3.1148,-4.03249 -5.43429,-6.08904 -2.31967,-2.0566 -4.21783,-4.11787 -4.21783,-4.58163 0,-0.46399 2.41535,-3.37572 5.36711,-6.47144 4.30273,-4.51283 6.72868,-8.25636 12.23595,-18.87378 3.77791,-7.28367 7.3961,-14.88601 8.04033,-16.89458 l 1.17202,-3.65042 0.21446,3.65042 c 0.11888,2.00857 0.16637,4.20045 0.10542,4.86999 -0.7846,8.5839 -0.78271,26.2035 0.002,28.47164 2.14897,6.20512 4.9792,11.07767 8.3907,14.44874 4.34868,4.29682 5.09098,3.3716 1.63401,-2.03451 -4.33769,-6.78327 -4.72402,-13.2433 -1.33687,-22.28649 1.24017,-3.31093 2.83922,-8.21116 3.55327,-10.88926 0.714,-2.67808 1.63099,-5.50413 2.03864,-6.2792 1.69375,-3.22058 0.59436,-16.87658 -1.86139,-23.11384 -1.70226,-4.32326 -10.62676,-8.33266 -21.61573,-9.7131 l -5.24671,-0.65887 2.71559,-3.57395 c 1.49463,-1.96508 5.47063,-6.31925 8.83306,-9.67486 5.68537,-5.673939 6.01888,-6.201458 4.77231,-7.527186 -0.737,-0.78403 -2.81904,-1.665988 -4.62762,-1.960087 -2.87336,-0.46726 -3.18494,-0.723939 -2.45618,-2.034502 1.54592,-2.780213 0.8555,-5.170339 -4.56975,-15.783532 -2.97297,-5.816181 -6.1587,-12.766454 -7.07863,-15.444536 -2.83775,-8.260386 -4.93458,-12.40495 -6.3066,-12.462288 z m 75.74731,20.163627 c 0.001,0.04082 0.003,0.08165 0.004,0.122473 10e-6,-0.02894 -2e-5,-0.05788 0,-0.08682 -0.001,-0.0119 -0.003,-0.02376 -0.004,-0.03566 z M 106.63606,73.52497 c -0.62313,0.01403 -1.83617,0.279143 -3.11867,0.704866 -9.065565,3.009215 -15.977288,12.661172 -16.061038,22.430156 -0.0387,4.526288 0.395485,6.220198 2.725932,10.656198 3.052477,5.80959 6.65288,8.59862 14.711766,11.39 5.47078,1.89501 6.23432,1.93022 6.87916,0.31264 0.2814,-0.70599 0.51032,-2.62443 0.50953,-4.26175 -0.001,-2.40645 -0.62757,-3.54415 -3.2706,-5.93762 -5.01183,-4.53882 -7.9844,-11.23355 -8.05325,-18.137915 -0.0609,-6.079009 1.08838,-9.715873 4.43487,-14.022916 1.13654,-1.46279 1.87885,-2.838544 1.64951,-3.059245 -0.0575,-0.05519 -0.19984,-0.07885 -0.40721,-0.07441 z m 68.44337,0.591695 c -1.90564,-0.0671 -1.60213,0.979522 0.74827,3.265951 5.27386,5.130437 6.61572,11.80665 4.02508,20.015832 -1.49184,4.727422 -2.67026,6.568622 -7.27087,11.351242 -3.01993,3.1395 -5.48959,5.94192 -5.48959,6.22856 0,0.8634 7.00406,3.58219 9.38754,3.64371 1.22233,0.032 3.12461,-0.39927 4.22765,-0.95705 4.34063,-2.19564 9.05774,-6.60301 11.35641,-10.60814 3.3109,-5.7689 3.31922,-12.670249 0.0238,-19.622055 -2.71887,-5.73464 -8.54801,-11.349771 -13.02298,-12.546004 -1.79436,-0.479702 -3.11743,-0.741122 -3.98425,-0.772046 h -5.2e-4 z m 28.01793,29.416805 c -0.55077,-0.0578 -1.0216,0.84145 -1.04438,2.73679 -0.0338,2.68442 -3.42366,8.17502 -6.80837,11.02413 -2.90427,2.44455 -12.02225,7.06572 -13.94231,7.06572 -1.25018,0 -1.55833,0.60976 -1.53685,3.04219 0.029,3.41796 1.31728,5.494 3.78788,6.10816 2.09872,0.5217 6.09134,-0.04 8.83253,-1.24334 3.48696,-1.53132 8.4282,-6.47241 10.09965,-10.09809 1.95842,-4.24828 2.90738,-11.20707 2.13113,-15.62954 -0.33942,-1.93336 -0.96854,-2.94824 -1.51928,-3.00602 z m -125.805245,0.007 c -0.349111,-0.0475 -0.679355,0.22981 -0.934827,0.87075 -0.825935,2.07141 1.215392,14.12976 3.076298,18.17873 2.145899,4.66924 4.564021,7.21859 8.397421,8.84546 3.598486,1.52713 11.15607,3.36849 11.990999,2.92178 0.334094,-0.17889 0.844624,-2.04418 1.134294,-4.146 0.70898,-5.14401 0.65552,-5.25013 -3.550167,-6.78666 -8.909921,-3.25529 -16.77179,-10.55227 -18.459855,-17.13022 -0.435148,-1.69494 -1.072415,-2.67467 -1.654163,-2.75384 z m 2.728516,29.34033 0.587044,2.38073 c 0.899715,3.64481 4.571503,9.1923 7.33857,11.08873 4.477275,3.06858 10.314127,4.05142 11.178646,1.88309 0.885729,-2.22171 0.556393,-6.05925 -0.542086,-6.31745 -6.604503,-1.5522 -13.325643,-4.31871 -15.711186,-6.46678 z m 121.215339,1.48621 c -0.30798,0.0496 -0.84773,0.34861 -1.62884,0.84129 -5.3987,3.40472 -8.56627,4.64576 -12.97285,5.0891 l -4.78731,0.48317 v 4.3677 c 0,4.88126 0.46544,5.13689 6.44871,3.53725 3.7016,-0.98958 9.27812,-6.00037 11.64373,-10.46345 1.52139,-2.87025 1.97383,-3.96408 1.29656,-3.85506 z" /></g></g></svg>
